<svg version="1.1" id="Layer_1" xmlns="http://www.w3.org/2000/svg" xmlns:xlink="http://www.w3.org/1999/xlink" x="0px" y="0px"
	 width="100%" viewBox="0 0 1024 1024" enable-background="new 0 0 1024 1024" xml:space="preserve">
<path fill="none" opacity="1.000000" stroke="#000000" stroke-linecap="round" stroke-linejoin="round" stroke-width="8.000000"
	d="
M829.500000,496.499969 
	C821.666687,492.999969 813.882996,489.383362 805.991272,486.020508 
	C775.093079,472.854187 744.398926,459.237762 712.544067,448.370850 
	C685.103516,439.009766 657.367493,430.967529 629.012268,424.942169 
	C615.751099,422.124237 602.439331,419.809601 589.016052,417.887848 
	C571.575134,415.390961 554.112976,413.966766 536.508057,413.290833 
	C527.172485,412.932434 517.835449,412.377838 508.501282,412.564178 
	C496.829285,412.797211 485.119659,413.006439 473.510620,414.111542 
	C454.410126,415.929749 435.295197,418.177551 416.530731,422.145355 
	C390.696228,427.608063 365.142120,434.164398 339.930298,442.283600 
	C310.666107,451.707825 281.982239,462.506866 253.456299,473.890503 
	C235.334259,481.122345 217.746216,489.590942 199.500000,496.500000 
"/>
<path fill="none" opacity="1.000000" stroke="#000000" stroke-linecap="round" stroke-linejoin="round" stroke-width="6.000000"
	d="
M683.500000,549.500000 
	C680.497131,549.385132 677.506409,549.583008 674.485657,549.087341 
	C672.127014,548.700195 669.522949,548.507629 667.496094,550.496033 
	C665.953430,552.009399 664.005737,552.134460 662.000000,551.999756 
	C647.840332,551.048401 633.636169,550.948242 619.493347,549.568176 
	C613.366943,548.970337 607.173401,549.441650 600.994080,549.110168 
	C588.013550,548.413879 574.997864,548.400269 562.000488,547.985413 
	C537.836670,547.214172 513.665344,547.369202 489.500549,547.568176 
	C468.664520,547.739807 447.831696,548.440369 427.000580,549.020996 
	C412.997528,549.411255 398.981689,549.724792 385.010284,550.654602 
	C380.346771,550.964966 375.688171,551.463074 371.000031,551.501892 
	C367.685059,551.529419 364.555115,550.326904 361.447388,549.826965 
	C355.021667,548.793274 347.984528,546.532959 341.964569,551.960693 
	C338.529388,555.057922 333.952545,553.512146 329.986725,553.838562 
	C314.332245,555.127319 298.635468,555.881592 282.995331,557.453613 
	C276.857178,558.070496 270.658020,558.053589 264.501831,558.524170 
	C252.495560,559.441956 240.499588,560.494995 228.500153,561.501770 
	C220.666031,562.158997 212.843216,563.050842 204.995789,563.407471 
	C201.126602,563.583252 197.418823,565.149780 193.500000,564.500000 
"/>
<path fill="none" opacity="1.000000" stroke="#000000" stroke-linecap="round" stroke-linejoin="round" stroke-width="11.000000"
	d="
M881.500000,530.500000 
	C871.736694,527.714661 862.469421,523.506897 853.081726,519.793335 
	C830.850708,510.999329 808.482727,502.612152 786.013428,494.462921 
	C772.092529,489.414062 757.977478,485.110291 743.501526,481.992798 
	C742.989380,481.882507 742.337463,481.816833 742.024109,481.477722 
	C736.350464,475.336273 728.106689,474.861542 720.923889,472.760223 
	C706.788452,468.624878 692.425354,465.064423 678.135010,461.464020 
	C664.791870,458.102203 651.360229,454.855286 637.965820,451.642517 
	C625.459045,448.642609 612.669556,446.817535 599.995117,444.527161 
	C598.865295,444.322968 597.531555,444.156708 596.521423,444.554382 
	C588.474426,447.722351 580.974365,443.873322 573.551758,442.261505 
	C562.762024,439.918549 551.868347,439.003845 540.987915,438.154999 
	C529.875854,437.288025 518.659668,437.334991 507.501495,437.570923 
	C486.081482,438.023895 464.816956,440.056702 443.999542,445.498199 
	C442.669891,445.845734 441.016663,446.845245 440.049530,446.393860 
	C431.449890,442.380219 423.260529,446.388031 415.011871,447.581970 
	C397.298157,450.145935 379.845703,454.112305 362.505157,458.520264 
	C344.951752,462.982391 327.330841,467.197723 309.998230,472.494263 
	C305.509918,473.865784 300.942139,475.003540 296.524902,476.570190 
	C294.380798,477.330597 292.278351,478.586945 290.592896,480.103241 
	C289.741821,480.868927 289.150726,481.310913 288.010284,481.549255 
	C264.629700,486.435669 242.380905,494.991882 220.042007,503.115509 
	C197.185684,511.427338 174.676910,520.693298 151.968307,529.417480 
	C150.888229,529.832458 149.918777,531.049072 148.500000,530.500000 
"/>
<path fill="none" opacity="1.000000" stroke="#000000" stroke-linecap="round" stroke-linejoin="round" stroke-width="5.000000"
	d="
M685.500000,551.000000 
	C688.681458,554.308655 693.039734,554.129639 697.006287,554.411743 
	C711.823914,555.465820 726.700073,555.796021 741.488586,557.126709 
	C751.820251,558.056396 762.166321,558.679993 772.495483,559.553650 
	C782.826477,560.427429 793.135376,561.463074 803.490234,562.147400 
	C813.159851,562.786377 822.785889,564.216736 832.500000,564.500000 
"/>
<path fill="none" opacity="1.000000" stroke="#000000" stroke-linecap="round" stroke-linejoin="round" stroke-width="5.000000"
	d="
M440.000000,447.000000 
	C438.829651,451.496338 435.331207,453.520416 431.534821,455.564636 
	C423.508270,459.886566 415.324036,463.902618 407.958527,469.444885 
	C387.442657,484.882538 372.916779,504.571442 365.105774,529.033752 
	C363.852142,532.959839 363.846191,537.322754 363.559387,541.504089 
	C363.395264,543.897095 362.831299,545.915833 361.000000,547.500000 
"/>
<path fill="none" opacity="1.000000" stroke="#000000" stroke-linecap="round" stroke-linejoin="round" stroke-width="5.000000"
	d="
M590.000000,446.500000 
	C591.282898,451.293396 594.949219,454.109314 599.034729,455.921783 
	C626.323730,468.027985 645.741333,488.272919 658.794434,514.601929 
	C662.951660,522.987244 666.151489,532.202881 665.993347,541.999878 
	C665.963806,543.830872 666.684143,545.288513 668.000000,546.500000 
"/>
<path fill="none" opacity="1.000000" stroke="#000000" stroke-linecap="round" stroke-linejoin="round" stroke-width="6.000000"
	d="
M740.500000,482.000000 
	C738.017517,485.166534 734.197876,484.723663 730.994141,484.881470 
	C707.923340,486.017853 696.437378,500.509918 690.568298,520.769775 
	C688.671814,527.316162 687.284851,534.055847 687.992065,541.000793 
	C688.209045,543.131775 687.687439,545.037842 686.000000,546.500000 
"/>
<path fill="none" opacity="1.000000" stroke="#000000" stroke-linecap="round" stroke-linejoin="round" stroke-width="6.000000"
	d="
M344.000000,546.500000 
	C340.042725,542.657166 341.925995,537.388428 341.299347,532.957642 
	C339.474304,520.053223 335.261902,508.219574 327.341003,498.124756 
	C321.635040,490.852844 313.555878,486.714478 304.025848,485.322968 
	C299.677704,484.688049 294.671326,485.625549 291.000000,482.000000 
"/>
<path fill="none" opacity="1.000000" stroke="#000000" stroke-linecap="round" stroke-linejoin="round" stroke-width="2.000000"
	d="
M677.000000,490.500000 
	C678.842163,492.304962 678.937073,494.662384 678.990601,497.000214 
	C679.181274,505.333008 679.144165,513.675964 679.551147,521.997498 
	C679.991882,531.008545 680.833313,540.000000 681.499939,549.000000 
"/>
<path fill="none" opacity="1.000000" stroke="#000000" stroke-linecap="round" stroke-linejoin="round" stroke-width="2.000000"
	d="
M352.000000,462.500000 
	C353.629059,467.921478 352.679688,473.499512 353.024994,478.998444 
	C354.124207,496.502655 355.596344,513.988708 356.349091,531.506470 
	C356.593475,537.193665 357.858643,542.792603 357.500000,548.500000 
"/>
<path fill="none" opacity="1.000000" stroke="#000000" stroke-linecap="round" stroke-linejoin="round" stroke-width="3.000000"
	d="
M676.000000,490.500000 
	C673.277222,492.849548 674.330566,496.247803 674.164734,499.009888 
	C673.575806,508.817871 673.666626,518.666687 673.500000,528.500000 
"/>
<path fill="none" opacity="1.000000" stroke="#000000" stroke-linecap="round" stroke-linejoin="round" stroke-width="2.000000"
	d="
M352.500000,491.000000 
	C350.599823,492.555481 350.015411,494.619507 349.982422,496.999756 
	C349.859894,505.833710 349.666687,514.666687 349.500031,523.500000 
"/>
<path fill="none" opacity="1.000000" stroke="#000000" stroke-linecap="round" stroke-linejoin="round" stroke-width="8.000000"
	d="
M677.500000,462.500000 
	C675.463806,471.436920 676.961670,480.504761 676.500000,489.500000 
"/>
<path fill="none" opacity="1.000000" stroke="#000000" stroke-linecap="round" stroke-linejoin="round" stroke-width="2.000000"
	d="
M672.500000,532.500000 
	C672.333313,537.833313 672.166687,543.166687 672.000000,548.500000 
"/>
<path fill="none" opacity="1.000000" stroke="#000000" stroke-linecap="round" stroke-linejoin="round" stroke-width="2.000000"
	d="
M348.500000,533.500000 
	C348.333344,538.500000 348.166687,543.500000 348.000000,548.500000 
"/>
</svg>