<svg id="svg" version="1.1" xmlns="http://www.w3.org/2000/svg" xmlns:xlink="http://www.w3.org/1999/xlink" width="400" height="400" viewBox="0, 0, 400,400"><g id="svgg"><path id="path0" d="M189.063 159.782 C 163.054 160.741,132.426 168.933,96.680 184.491 C 91.425 186.778,75.219 194.621,77.148 193.943 C 78.874 193.337,94.299 187.444,99.609 185.361 C 173.392 156.429,224.736 155.058,289.495 180.289 C 296.871 183.163,313.994 189.942,318.664 191.837 C 325.100 194.449,325.350 194.497,321.484 192.386 C 314.244 188.433,296.301 180.262,286.328 176.377 C 252.272 163.109,225.004 158.457,189.063 159.782 M184.041 169.191 C 154.684 171.603,114.640 182.523,75.781 198.713 C 70.090 201.084,56.630 207.151,56.763 207.284 C 56.829 207.349,60.739 206.075,65.453 204.453 C 70.167 202.830,74.727 201.269,75.586 200.984 C 76.445 200.698,82.678 198.600,89.437 196.319 C 111.398 188.910,117.164 188.302,123.979 192.675 C 128.886 195.824,132.926 205.567,132.362 212.891 L 132.227 214.648 130.078 214.932 C 128.896 215.088,122.393 215.665,115.625 216.215 C 103.158 217.228,80.143 219.402,78.711 219.701 C 77.358 219.984,86.402 219.514,100.977 218.543 C 113.667 217.698,128.715 216.793,139.844 216.204 C 179.558 214.105,218.715 214.041,253.711 216.018 C 261.016 216.430,270.508 216.958,274.805 217.191 C 279.102 217.424,291.748 218.221,302.908 218.963 C 314.067 219.705,323.457 220.313,323.774 220.313 C 328.701 220.313,294.877 216.879,277.539 215.619 C 268.768 214.982,269.269 215.150,268.968 212.740 C 267.985 204.876,273.028 194.509,279.297 191.504 C 286.612 187.998,292.333 189.246,332.385 203.084 C 343.118 206.793,344.941 207.262,340.142 205.082 C 280.180 177.841,227.154 165.649,184.041 169.191 M215.244 173.209 C 238.713 176.951,259.742 195.612,258.907 211.953 L 258.789 214.258 249.805 213.791 C 217.093 212.091,179.561 212.137,147.422 213.915 L 142.696 214.176 142.450 212.639 C 141.158 204.557,150.000 190.505,160.938 183.256 C 174.736 174.112,196.106 170.158,215.244 173.209 M165.340 177.532 C 151.950 184.666,141.736 198.263,140.945 210.008 C 140.756 212.812,139.173 211.893,138.959 208.855 C 138.817 206.842,138.816 206.843,138.744 209.277 L 138.672 211.719 137.305 211.719 C 136.268 211.719,135.935 211.554,135.926 211.035 C 135.914 210.384,135.895 210.384,135.516 211.035 C 134.668 212.490,134.091 211.778,133.811 208.936 C 132.539 196.026,124.403 186.582,115.720 187.938 C 115.560 187.963,115.254 187.947,115.039 187.903 C 114.398 187.771,134.751 182.031,135.860 182.031 C 136.376 182.031,136.427 183.294,136.265 192.090 C 136.114 200.333,136.146 201.285,136.443 197.363 C 136.642 194.731,136.962 192.578,137.153 192.578 C 137.612 192.578,137.524 191.909,138.075 199.609 L 138.564 206.445 138.618 193.912 L 138.672 181.378 140.918 180.766 C 145.881 179.413,166.029 175.495,168.359 175.430 C 169.000 175.412,167.963 176.134,165.340 177.532 M241.211 176.747 C 245.293 177.487,251.735 178.748,255.527 179.549 L 262.422 181.004 262.692 183.885 C 262.840 185.470,262.874 190.843,262.766 195.825 C 262.650 201.167,262.695 203.681,262.875 201.953 C 263.042 200.342,263.205 197.617,263.236 195.898 C 263.366 188.770,264.290 190.871,264.782 199.414 C 265.103 204.996,265.122 204.716,265.177 193.517 L 265.234 181.760 270.996 183.279 C 274.165 184.114,278.428 185.301,280.469 185.917 C 282.510 186.533,284.751 187.155,285.449 187.300 C 286.147 187.444,286.719 187.727,286.719 187.929 C 286.719 188.131,286.305 188.192,285.800 188.066 C 284.485 187.736,280.217 188.573,277.923 189.611 C 272.323 192.146,268.381 199.415,267.706 208.454 L 267.468 211.635 264.984 211.672 L 262.500 211.709 262.432 210.054 L 262.364 208.398 262.214 210.059 C 261.970 212.765,260.732 212.380,260.393 209.493 C 258.940 197.128,248.331 183.541,234.863 176.795 C 231.285 175.003,231.590 175.001,241.211 176.747 M265.346 209.180 C 265.349 210.254,265.425 210.647,265.515 210.053 C 265.604 209.459,265.602 208.581,265.509 208.100 C 265.417 207.620,265.343 208.105,265.346 209.180 " stroke="none" fill="#4f4a47" fill-rule="evenodd"></path><path id="path1" d="M0.000 200.000 L 0.000 400.000 200.000 400.000 L 400.000 400.000 400.000 200.000 L 400.000 0.000 200.000 0.000 L 0.000 0.000 0.000 200.000 M226.164 160.320 C 249.472 163.329,274.104 170.354,297.464 180.655 C 310.982 186.616,325.918 193.993,325.580 194.541 C 325.446 194.758,325.217 194.861,325.071 194.771 C 324.796 194.602,297.056 183.550,290.820 181.126 C 256.018 167.594,220.229 161.083,190.625 162.899 C 163.199 164.581,138.088 170.949,97.461 186.523 C 76.304 194.633,76.478 194.569,76.004 194.400 C 74.993 194.040,99.640 182.573,109.961 178.602 C 121.054 174.334,124.108 173.228,131.641 170.753 C 147.853 165.424,163.120 161.916,176.758 160.386 C 179.766 160.048,182.754 159.700,183.398 159.611 C 186.778 159.146,221.533 159.723,226.164 160.320 M215.820 168.765 C 243.123 170.774,277.498 179.411,311.719 192.859 C 316.338 194.674,321.260 196.609,322.656 197.158 C 330.833 200.372,345.363 207.071,344.671 207.307 C 344.250 207.450,340.707 206.272,312.109 196.481 C 293.298 190.041,285.376 188.963,279.102 191.990 C 273.415 194.734,269.495 202.378,269.384 210.938 L 269.336 214.648 273.242 214.938 C 285.746 215.864,318.719 218.936,324.902 219.751 C 328.345 220.205,326.673 220.826,322.754 220.550 C 319.182 220.297,307.436 219.546,285.403 218.161 C 219.142 213.994,179.143 213.902,117.969 217.776 C 106.735 218.487,86.060 219.837,79.492 220.288 C 72.683 220.756,71.518 219.955,78.125 219.348 C 79.521 219.220,83.301 218.854,86.523 218.534 C 98.880 217.308,100.323 217.169,104.688 216.790 C 107.158 216.575,110.938 216.237,113.086 216.038 C 116.882 215.687,127.119 214.911,130.273 214.735 L 131.836 214.648 131.961 212.500 C 132.353 205.759,129.097 196.995,124.994 193.745 C 117.486 187.799,111.030 188.871,72.070 202.531 C 53.597 209.008,50.742 209.475,62.920 204.028 C 108.805 183.504,150.905 171.518,187.305 168.615 C 191.252 168.301,210.912 168.404,215.820 168.765 M190.725 173.252 C 164.287 176.288,142.657 193.730,142.585 212.072 L 142.578 213.793 148.730 213.521 C 193.305 211.553,212.274 211.602,256.660 213.798 L 258.828 213.906 258.684 211.543 C 257.704 195.438,240.718 179.195,219.867 174.424 C 212.485 172.735,199.702 172.221,190.725 173.252 M163.477 176.416 C 159.940 177.037,142.220 180.703,140.430 181.184 C 139.264 181.497,139.256 181.518,139.011 184.987 C 138.738 188.855,139.027 206.631,139.407 209.343 C 139.769 211.924,140.476 211.757,140.786 209.017 C 141.394 203.639,146.122 193.508,149.877 189.535 C 153.013 186.217,154.292 184.760,153.223 185.722 C 152.524 186.351,151.953 186.668,151.953 186.427 C 151.953 185.443,159.537 180.158,164.809 177.468 C 168.363 175.655,168.261 175.575,163.477 176.416 M236.591 177.351 C 240.552 179.385,244.387 182.246,248.075 185.920 C 251.885 189.716,253.560 192.012,256.923 198.047 C 258.312 200.540,260.130 205.742,260.594 208.555 C 261.635 214.857,262.015 211.937,262.344 195.098 L 262.612 181.408 255.787 179.937 C 252.033 179.128,246.603 178.051,243.719 177.543 C 240.836 177.035,237.686 176.435,236.719 176.210 C 233.528 175.467,233.495 175.762,236.591 177.351 M134.180 182.614 C 133.965 182.686,129.834 183.854,125.000 185.210 L 116.211 187.677 118.667 187.957 C 126.930 188.900,132.397 196.003,134.026 207.910 C 135.027 215.231,135.500 211.979,135.812 195.621 C 136.085 181.329,136.163 181.952,134.180 182.614 M265.494 194.009 C 265.565 207.133,265.828 211.328,266.578 211.328 C 266.910 211.328,267.152 210.396,267.314 208.496 C 268.349 196.366,274.240 188.738,283.155 187.986 L 285.646 187.776 282.569 186.863 C 276.491 185.060,268.138 182.788,266.797 182.573 L 265.430 182.353 265.494 194.009 M136.981 196.094 C 136.815 197.275,136.556 201.187,136.406 204.785 L 136.133 211.328 137.314 211.328 L 138.495 211.328 138.022 204.199 C 137.286 193.132,137.339 193.539,136.981 196.094 M263.372 199.805 C 262.565 209.515,262.658 211.328,263.965 211.328 L 265.039 211.328 264.733 205.371 C 264.139 193.830,263.937 193.005,263.372 199.805 " stroke="none" fill="#fbfbfb" fill-rule="evenodd"></path><path id="path2" d="M211.426 159.644 C 211.802 159.743,212.417 159.743,212.793 159.644 C 213.169 159.546,212.861 159.466,212.109 159.466 C 211.357 159.466,211.050 159.546,211.426 159.644 M199.707 162.379 C 200.083 162.477,200.698 162.477,201.074 162.379 C 201.450 162.280,201.143 162.200,200.391 162.200 C 199.639 162.200,199.331 162.280,199.707 162.379 M192.876 168.636 C 193.362 168.729,194.065 168.726,194.438 168.628 C 194.812 168.530,194.414 168.454,193.555 168.458 C 192.695 168.462,192.390 168.542,192.876 168.636 M215.332 169.019 C 215.708 169.118,216.323 169.118,216.699 169.019 C 217.075 168.921,216.768 168.841,216.016 168.841 C 215.264 168.841,214.956 168.921,215.332 169.019 M200.293 172.552 C 201.206 172.634,202.700 172.634,203.613 172.552 C 204.526 172.469,203.779 172.402,201.953 172.402 C 200.127 172.402,199.380 172.469,200.293 172.552 M136.055 184.375 C 136.055 185.557,136.128 186.040,136.217 185.449 C 136.307 184.858,136.307 183.892,136.217 183.301 C 136.128 182.710,136.055 183.193,136.055 184.375 M154.541 183.906 C 154.381 184.164,154.384 184.375,154.546 184.375 C 154.708 184.375,154.238 185.034,153.502 185.840 L 152.163 187.305 153.668 185.884 C 154.495 185.102,155.096 184.232,155.002 183.950 C 154.872 183.561,154.761 183.550,154.541 183.906 M274.979 194.824 L 273.633 196.289 275.098 194.943 C 276.461 193.690,276.742 193.359,276.444 193.359 C 276.379 193.359,275.719 194.019,274.979 194.824 M262.234 203.906 C 262.234 205.303,262.305 205.874,262.392 205.176 C 262.479 204.478,262.479 203.335,262.392 202.637 C 262.305 201.938,262.234 202.510,262.234 203.906 M132.122 211.328 C 132.122 212.080,132.202 212.388,132.301 212.012 C 132.399 211.636,132.399 211.021,132.301 210.645 C 132.202 210.269,132.122 210.576,132.122 211.328 M196.777 212.400 C 198.550 212.472,201.450 212.472,203.223 212.400 C 204.995 212.328,203.545 212.268,200.000 212.268 C 196.455 212.268,195.005 212.328,196.777 212.400 M173.145 212.769 C 173.521 212.868,174.136 212.868,174.512 212.769 C 174.888 212.671,174.580 212.591,173.828 212.591 C 173.076 212.591,172.769 212.671,173.145 212.769 M225.884 212.780 C 226.478 212.870,227.357 212.868,227.837 212.775 C 228.318 212.682,227.832 212.609,226.758 212.612 C 225.684 212.615,225.291 212.691,225.884 212.780 M253.223 213.941 C 253.599 214.039,254.214 214.039,254.590 213.941 C 254.966 213.843,254.658 213.763,253.906 213.763 C 253.154 213.763,252.847 213.843,253.223 213.941 M197.559 214.744 C 199.761 214.814,203.364 214.814,205.566 214.744 C 207.769 214.675,205.967 214.618,201.563 214.618 C 197.158 214.618,195.356 214.675,197.559 214.744 M176.275 215.124 C 176.869 215.214,177.748 215.211,178.228 215.119 C 178.708 215.026,178.223 214.953,177.148 214.955 C 176.074 214.958,175.681 215.034,176.275 215.124 M225.098 215.113 C 225.474 215.211,226.089 215.211,226.465 215.113 C 226.841 215.015,226.533 214.934,225.781 214.934 C 225.029 214.934,224.722 215.015,225.098 215.113 M162.407 215.511 C 162.893 215.604,163.596 215.601,163.969 215.503 C 164.343 215.405,163.945 215.329,163.086 215.333 C 162.227 215.337,161.921 215.417,162.407 215.511 M152.251 215.901 C 152.737 215.995,153.440 215.991,153.813 215.893 C 154.187 215.796,153.789 215.719,152.930 215.724 C 152.070 215.728,151.765 215.808,152.251 215.901 " stroke="none" fill="#aaa7a5" fill-rule="evenodd"></path><path id="path3" d="M191.504 159.662 C 192.524 159.743,194.194 159.743,195.215 159.662 C 196.235 159.582,195.400 159.516,193.359 159.516 C 191.318 159.516,190.483 159.582,191.504 159.662 M204.980 159.661 C 205.894 159.743,207.388 159.743,208.301 159.661 C 209.214 159.579,208.467 159.511,206.641 159.511 C 204.814 159.511,204.067 159.579,204.980 159.661 M195.801 162.379 C 196.177 162.477,196.792 162.477,197.168 162.379 C 197.544 162.280,197.236 162.200,196.484 162.200 C 195.732 162.200,195.425 162.280,195.801 162.379 M205.766 162.386 C 206.252 162.479,206.955 162.476,207.329 162.378 C 207.702 162.280,207.305 162.204,206.445 162.208 C 205.586 162.212,205.280 162.292,205.766 162.386 M199.316 168.649 C 200.767 168.724,203.140 168.724,204.590 168.649 C 206.040 168.574,204.854 168.512,201.953 168.512 C 199.053 168.512,197.866 168.574,199.316 168.649 M196.191 172.535 C 196.567 172.633,197.183 172.633,197.559 172.535 C 197.935 172.437,197.627 172.356,196.875 172.356 C 196.123 172.356,195.815 172.437,196.191 172.535 M262.655 189.453 C 262.655 192.568,262.716 193.843,262.790 192.285 C 262.864 190.728,262.864 188.179,262.790 186.621 C 262.716 185.063,262.655 186.338,262.655 189.453 M153.699 189.160 L 151.367 191.602 153.809 189.270 C 156.076 187.104,156.429 186.719,156.140 186.719 C 156.080 186.719,154.981 187.817,153.699 189.160 M247.266 188.867 C 247.994 189.619,248.679 190.234,248.786 190.234 C 248.893 190.234,248.385 189.619,247.656 188.867 C 246.927 188.115,246.243 187.500,246.136 187.500 C 246.028 187.500,246.537 188.115,247.266 188.867 M136.082 192.578 C 136.082 194.834,136.147 195.757,136.225 194.629 C 136.304 193.501,136.304 191.655,136.225 190.527 C 136.147 189.399,136.082 190.322,136.082 192.578 M113.574 190.126 C 114.272 190.213,115.415 190.213,116.113 190.126 C 116.812 190.040,116.240 189.969,114.844 189.969 C 113.447 189.969,112.876 190.040,113.574 190.126 M286.041 190.124 C 286.634 190.214,287.513 190.211,287.994 190.119 C 288.474 190.026,287.988 189.953,286.914 189.955 C 285.840 189.958,285.447 190.034,286.041 190.124 M264.544 199.219 C 264.544 199.971,264.624 200.278,264.722 199.902 C 264.821 199.526,264.821 198.911,264.722 198.535 C 264.624 198.159,264.544 198.467,264.544 199.219 M136.059 204.102 C 136.061 205.391,136.134 205.871,136.221 205.169 C 136.308 204.467,136.306 203.412,136.217 202.825 C 136.127 202.238,136.056 202.813,136.059 204.102 M262.322 206.463 C 262.173 207.459,262.139 208.363,262.246 208.470 C 262.354 208.577,262.564 207.850,262.713 206.854 C 262.862 205.857,262.897 204.954,262.789 204.847 C 262.682 204.739,262.472 205.467,262.322 206.463 M138.537 206.003 C 138.376 206.619,138.336 207.216,138.448 207.329 C 138.763 207.643,139.147 206.385,138.980 205.589 C 138.870 205.068,138.754 205.177,138.537 206.003 M264.875 206.426 C 264.852 207.558,264.959 207.853,265.278 207.534 C 265.587 207.226,265.596 206.778,265.309 205.991 C 264.910 204.895,264.905 204.900,264.875 206.426 M135.659 208.789 C 135.662 209.863,135.737 210.256,135.827 209.663 C 135.917 209.069,135.915 208.190,135.822 207.709 C 135.729 207.229,135.656 207.715,135.659 208.789 M268.856 210.938 C 268.856 211.904,268.933 212.300,269.026 211.816 C 269.119 211.333,269.119 210.542,269.026 210.059 C 268.933 209.575,268.856 209.971,268.856 210.938 M177.246 212.776 C 177.729 212.869,178.521 212.869,179.004 212.776 C 179.487 212.683,179.092 212.606,178.125 212.606 C 177.158 212.606,176.763 212.683,177.246 212.776 M221.782 212.776 C 222.268 212.870,222.971 212.866,223.344 212.768 C 223.718 212.671,223.320 212.594,222.461 212.599 C 221.602 212.603,221.296 212.683,221.782 212.776 M164.947 213.171 C 165.541 213.261,166.419 213.258,166.900 213.166 C 167.380 213.073,166.895 212.999,165.820 213.002 C 164.746 213.005,164.353 213.081,164.947 213.171 M234.863 213.160 C 235.239 213.258,235.854 213.258,236.230 213.160 C 236.606 213.062,236.299 212.981,235.547 212.981 C 234.795 212.981,234.487 213.062,234.863 213.160 M186.612 214.735 C 187.306 214.821,188.536 214.823,189.347 214.738 C 190.157 214.654,189.590 214.583,188.086 214.581 C 186.582 214.580,185.919 214.649,186.612 214.735 M213.581 214.736 C 214.283 214.823,215.338 214.821,215.925 214.732 C 216.512 214.643,215.937 214.572,214.648 214.574 C 213.359 214.576,212.879 214.649,213.581 214.736 M169.629 215.128 C 170.435 215.213,171.753 215.213,172.559 215.128 C 173.364 215.044,172.705 214.975,171.094 214.975 C 169.482 214.975,168.823 215.044,169.629 215.128 M229.206 215.127 C 229.908 215.214,230.963 215.212,231.550 215.123 C 232.137 215.034,231.562 214.963,230.273 214.965 C 228.984 214.967,228.504 215.040,229.206 215.127 M159.082 215.504 C 159.458 215.602,160.073 215.602,160.449 215.504 C 160.825 215.405,160.518 215.325,159.766 215.325 C 159.014 215.325,158.706 215.405,159.082 215.504 M241.113 215.504 C 241.489 215.602,242.104 215.602,242.480 215.504 C 242.856 215.405,242.549 215.325,241.797 215.325 C 241.045 215.325,240.737 215.405,241.113 215.504 M148.926 215.894 C 149.302 215.993,149.917 215.993,150.293 215.894 C 150.669 215.796,150.361 215.716,149.609 215.716 C 148.857 215.716,148.550 215.796,148.926 215.894 M276.660 217.457 C 277.036 217.555,277.651 217.555,278.027 217.457 C 278.403 217.359,278.096 217.278,277.344 217.278 C 276.592 217.278,276.284 217.359,276.660 217.457 M77.148 219.922 C 77.281 220.137,77.654 220.313,77.976 220.313 C 78.298 220.313,78.453 220.137,78.320 219.922 C 78.188 219.707,77.815 219.531,77.493 219.531 C 77.171 219.531,77.016 219.707,77.148 219.922 " stroke="none" fill="#8c8c8c" fill-rule="evenodd"></path><path id="path4" d="M202.447 162.390 C 203.041 162.479,203.919 162.477,204.400 162.384 C 204.880 162.292,204.395 162.218,203.320 162.221 C 202.246 162.224,201.853 162.300,202.447 162.390 M136.028 187.500 C 136.028 188.252,136.109 188.560,136.207 188.184 C 136.305 187.808,136.305 187.192,136.207 186.816 C 136.109 186.440,136.028 186.748,136.028 187.500 M191.309 214.729 C 191.792 214.822,192.583 214.822,193.066 214.729 C 193.550 214.636,193.154 214.560,192.188 214.560 C 191.221 214.560,190.825 214.636,191.309 214.729 M210.059 214.729 C 210.542 214.822,211.333 214.822,211.816 214.729 C 212.300 214.636,211.904 214.560,210.938 214.560 C 209.971 214.560,209.575 214.636,210.059 214.729 " stroke="none" fill="#948c8c" fill-rule="evenodd"></path><path id="path5" d="M184.863 159.644 C 185.239 159.743,185.854 159.743,186.230 159.644 C 186.606 159.546,186.299 159.466,185.547 159.466 C 184.795 159.466,184.487 159.546,184.863 159.644 M213.965 159.651 C 214.448 159.744,215.239 159.744,215.723 159.651 C 216.206 159.558,215.811 159.481,214.844 159.481 C 213.877 159.481,213.481 159.558,213.965 159.651 M192.090 162.776 C 192.573 162.869,193.364 162.869,193.848 162.776 C 194.331 162.683,193.936 162.606,192.969 162.606 C 192.002 162.606,191.606 162.683,192.090 162.776 M209.863 162.769 C 210.239 162.868,210.854 162.868,211.230 162.769 C 211.606 162.671,211.299 162.591,210.547 162.591 C 209.795 162.591,209.487 162.671,209.863 162.769 M189.556 168.640 C 190.150 168.729,191.029 168.727,191.509 168.634 C 191.990 168.542,191.504 168.468,190.430 168.471 C 189.355 168.474,188.962 168.550,189.556 168.640 M210.645 168.629 C 211.021 168.727,211.636 168.727,212.012 168.629 C 212.388 168.530,212.080 168.450,211.328 168.450 C 210.576 168.450,210.269 168.530,210.645 168.629 M138.836 181.777 C 138.725 182.067,138.688 183.517,138.755 185.000 L 138.877 187.695 139.067 184.472 C 139.258 181.253,139.217 180.783,138.836 181.777 M265.396 189.648 C 265.396 193.516,265.455 195.045,265.526 193.047 C 265.597 191.048,265.596 187.884,265.525 186.015 C 265.453 184.146,265.395 185.781,265.396 189.648 M247.852 185.938 C 249.127 187.227,250.259 188.281,250.366 188.281 C 250.474 188.281,249.518 187.227,248.242 185.938 C 246.967 184.648,245.835 183.594,245.728 183.594 C 245.620 183.594,246.576 184.648,247.852 185.938 M152.736 185.350 C 151.424 186.747,151.914 186.864,153.424 185.515 C 154.126 184.888,154.464 184.375,154.176 184.375 C 153.888 184.375,153.240 184.814,152.736 185.350 M155.639 187.598 L 154.492 188.867 155.762 187.720 C 156.945 186.650,157.211 186.328,156.909 186.328 C 156.842 186.328,156.271 186.899,155.639 187.598 M138.813 199.219 C 138.813 201.260,138.879 202.095,138.959 201.074 C 139.039 200.054,139.039 198.384,138.959 197.363 C 138.879 196.343,138.813 197.178,138.813 199.219 M263.380 197.461 C 263.384 198.320,263.464 198.626,263.558 198.140 C 263.651 197.654,263.647 196.951,263.550 196.577 C 263.452 196.204,263.375 196.602,263.380 197.461 M262.234 199.219 C 262.234 200.615,262.305 201.187,262.392 200.488 C 262.479 199.790,262.479 198.647,262.392 197.949 C 262.305 197.251,262.234 197.822,262.234 199.219 M265.363 201.367 C 265.364 202.871,265.435 203.438,265.519 202.628 C 265.604 201.818,265.603 200.587,265.516 199.894 C 265.430 199.200,265.361 199.863,265.363 201.367 M136.419 200.781 C 136.419 201.533,136.499 201.841,136.597 201.465 C 136.696 201.089,136.696 200.474,136.597 200.098 C 136.499 199.722,136.419 200.029,136.419 200.781 M135.668 202.539 C 135.670 203.828,135.743 204.308,135.830 203.606 C 135.917 202.904,135.915 201.850,135.826 201.263 C 135.737 200.676,135.666 201.250,135.668 202.539 M138.002 203.320 C 138.005 204.395,138.081 204.788,138.171 204.194 C 138.261 203.600,138.258 202.721,138.166 202.241 C 138.073 201.760,137.999 202.246,138.002 203.320 M262.566 210.059 L 262.500 211.719 263.965 211.656 C 265.375 211.596,265.383 211.588,264.182 211.438 C 263.068 211.299,262.919 211.129,262.783 209.840 L 262.631 208.398 262.566 210.059 M133.984 210.133 C 133.984 210.765,134.123 211.368,134.293 211.473 C 134.463 211.578,134.532 211.061,134.446 210.324 C 134.254 208.682,133.984 208.571,133.984 210.133 M261.764 210.491 C 261.729 211.199,261.561 211.352,261.035 211.151 C 260.487 210.943,260.448 210.989,260.840 211.383 C 261.481 212.029,262.255 211.301,261.996 210.295 C 261.849 209.723,261.800 209.764,261.764 210.491 M258.700 211.719 C 258.700 212.686,258.776 213.081,258.869 212.598 C 258.963 212.114,258.963 211.323,258.869 210.840 C 258.776 210.356,258.700 210.752,258.700 211.719 M183.105 212.400 C 185.093 212.471,188.345 212.471,190.332 212.400 C 192.319 212.330,190.693 212.272,186.719 212.272 C 182.744 212.272,181.118 212.330,183.105 212.400 M209.453 212.400 C 211.322 212.471,214.486 212.472,216.484 212.401 C 218.482 212.330,216.953 212.271,213.086 212.271 C 209.219 212.270,207.584 212.328,209.453 212.400 M170.025 212.780 C 170.619 212.870,171.498 212.868,171.978 212.775 C 172.458 212.682,171.973 212.609,170.898 212.612 C 169.824 212.615,169.431 212.691,170.025 212.780 M229.395 212.780 C 229.985 212.869,230.952 212.869,231.543 212.780 C 232.134 212.690,231.650 212.617,230.469 212.617 C 229.287 212.617,228.804 212.690,229.395 212.780 M158.887 213.166 C 159.370 213.259,160.161 213.259,160.645 213.166 C 161.128 213.073,160.732 212.997,159.766 212.997 C 158.799 212.997,158.403 213.073,158.887 213.166 M239.751 213.167 C 240.237 213.260,240.940 213.257,241.313 213.159 C 241.687 213.061,241.289 212.985,240.430 212.989 C 239.570 212.993,239.265 213.073,239.751 213.167 M150.879 213.551 C 151.255 213.649,151.870 213.649,152.246 213.551 C 152.622 213.452,152.314 213.372,151.563 213.372 C 150.811 213.372,150.503 213.452,150.879 213.551 M143.066 213.941 C 143.442 214.039,144.058 214.039,144.434 213.941 C 144.810 213.843,144.502 213.763,143.750 213.763 C 142.998 213.763,142.690 213.843,143.066 213.941 M255.762 213.948 C 256.245 214.041,257.036 214.041,257.520 213.948 C 258.003 213.854,257.607 213.778,256.641 213.778 C 255.674 213.778,255.278 213.854,255.762 213.948 M179.972 215.126 C 180.665 215.212,181.896 215.213,182.706 215.129 C 183.517 215.044,182.949 214.974,181.445 214.972 C 179.941 214.970,179.278 215.039,179.972 215.126 M219.238 215.131 C 220.259 215.211,221.929 215.211,222.949 215.131 C 223.970 215.050,223.135 214.985,221.094 214.985 C 219.053 214.985,218.218 215.050,219.238 215.131 M165.337 215.515 C 165.931 215.604,166.810 215.602,167.291 215.509 C 167.771 215.417,167.285 215.343,166.211 215.346 C 165.137 215.349,164.744 215.425,165.337 215.515 M234.869 215.515 C 235.462 215.604,236.341 215.602,236.822 215.509 C 237.302 215.417,236.816 215.343,235.742 215.346 C 234.668 215.349,234.275 215.425,234.869 215.515 M278.223 215.504 C 278.599 215.602,279.214 215.602,279.590 215.504 C 279.966 215.405,279.658 215.325,278.906 215.325 C 278.154 215.325,277.847 215.405,278.223 215.504 M115.723 215.894 C 116.099 215.993,116.714 215.993,117.090 215.894 C 117.466 215.796,117.158 215.716,116.406 215.716 C 115.654 215.716,115.347 215.796,115.723 215.894 M155.181 215.905 C 155.775 215.995,156.654 215.993,157.134 215.900 C 157.615 215.807,157.129 215.734,156.055 215.737 C 154.980 215.740,154.587 215.816,155.181 215.905 M244.438 215.901 C 244.924 215.995,245.627 215.991,246.001 215.893 C 246.374 215.796,245.977 215.719,245.117 215.724 C 244.258 215.728,243.952 215.808,244.438 215.901 M111.426 216.285 C 111.802 216.383,112.417 216.383,112.793 216.285 C 113.169 216.187,112.861 216.106,112.109 216.106 C 111.357 216.106,111.050 216.187,111.426 216.285 M144.434 216.291 C 144.917 216.384,145.708 216.384,146.191 216.291 C 146.675 216.198,146.279 216.122,145.313 216.122 C 144.346 216.122,143.950 216.198,144.434 216.291 M251.469 216.292 C 251.955 216.385,252.658 216.382,253.032 216.284 C 253.405 216.186,253.008 216.110,252.148 216.114 C 251.289 216.118,250.983 216.198,251.469 216.292 M137.016 216.683 C 137.502 216.776,138.205 216.772,138.579 216.675 C 138.952 216.577,138.555 216.500,137.695 216.505 C 136.836 216.509,136.530 216.589,137.016 216.683 M265.527 217.073 C 266.011 217.166,266.802 217.166,267.285 217.073 C 267.769 216.979,267.373 216.903,266.406 216.903 C 265.439 216.903,265.044 216.979,265.527 217.073 M272.954 217.464 C 273.440 217.557,274.143 217.554,274.516 217.456 C 274.890 217.358,274.492 217.282,273.633 217.286 C 272.773 217.290,272.468 217.370,272.954 217.464 M94.238 217.847 C 94.614 217.946,95.229 217.946,95.605 217.847 C 95.981 217.749,95.674 217.669,94.922 217.669 C 94.170 217.669,93.862 217.749,94.238 217.847 M280.176 217.847 C 280.552 217.946,281.167 217.946,281.543 217.847 C 281.919 217.749,281.611 217.669,280.859 217.669 C 280.107 217.669,279.800 217.749,280.176 217.847 M104.395 218.629 C 104.771 218.727,105.386 218.727,105.762 218.629 C 106.138 218.530,105.830 218.450,105.078 218.450 C 104.326 218.450,104.019 218.530,104.395 218.629 M304.395 219.410 C 304.771 219.508,305.386 219.508,305.762 219.410 C 306.138 219.312,305.830 219.231,305.078 219.231 C 304.326 219.231,304.019 219.312,304.395 219.410 M86.235 219.808 C 86.721 219.901,87.424 219.897,87.798 219.800 C 88.171 219.702,87.773 219.625,86.914 219.630 C 86.055 219.634,85.749 219.714,86.235 219.808 M310.645 219.801 C 311.021 219.899,311.636 219.899,312.012 219.801 C 312.388 219.702,312.080 219.622,311.328 219.622 C 310.576 219.622,310.269 219.702,310.645 219.801 M79.785 220.191 C 80.161 220.289,80.776 220.289,81.152 220.191 C 81.528 220.093,81.221 220.013,80.469 220.013 C 79.717 220.013,79.409 220.093,79.785 220.191 M324.023 220.313 L 321.680 220.572 324.121 220.637 C 325.532 220.675,326.563 220.538,326.563 220.313 C 326.563 220.098,326.519 219.951,326.465 219.988 C 326.411 220.024,325.313 220.170,324.023 220.313 " stroke="none" fill="#d3d0ce" fill-rule="evenodd"></path></g></svg>